<?xml version="1.0" encoding="utf-8"?>
<!-- Generator: Adobe Illustrator 22.0.1, SVG Export Plug-In . SVG Version: 6.00 Build 0)  -->
<svg version="1.1" id="Layer_1" xmlns="http://www.w3.org/2000/svg" xmlns:xlink="http://www.w3.org/1999/xlink" x="0px" y="0px"
	 viewBox="0 0 676 793" style="enable-background:new 0 0 676 793;" xml:space="preserve">
<style type="text/css">
	.st0{fill:#FF563E;}
	.st1{fill:#FFD64A;fill-opacity:0.7;}
</style>
<g id="_x3C_Group13_x3E_">
	<g>
		<circle class="st0" cx="257" cy="186" r="25"/>
	</g>
	<circle class="st1" cx="257" cy="186" r="10"/>
</g>
<g id="_x3C_Group12_x3E_">
	<g>
		<circle class="st0" cx="571" cy="292" r="25"/>
	</g>
	<circle class="st1" cx="571" cy="292" r="10"/>
</g>
<g id="_x3C_Group11_x3E_">
	<g>
		<circle class="st0" cx="257" cy="391" r="25"/>
	</g>
	<circle class="st1" cx="257" cy="391" r="10"/>
</g>
<g id="_x3C_Group10_x3E_">
	<g>
		<circle class="st0" cx="300" cy="393" r="25"/>
	</g>
	<circle class="st1" cx="300" cy="393" r="10"/>
</g>
<g id="_x3C_Group9_x3E_">
	<g>
		<circle class="st0" cx="313" cy="634" r="25"/>
	</g>
	<circle class="st1" cx="313" cy="634" r="10"/>
</g>
<g id="_x3C_Group8_x3E_">
	<g>
		<circle class="st0" cx="451" cy="492" r="25"/>
	</g>
	<circle class="st1" cx="451" cy="492" r="10"/>
</g>
<g id="_x3C_Group7_x3E_">
	<g>
		<circle class="st0" cx="137" cy="639" r="25"/>
	</g>
	<circle class="st1" cx="137" cy="639" r="10"/>
</g>
<g id="_x3C_Group6_x3E_">
	<g>
		<circle class="st0" cx="337" cy="243" r="25"/>
	</g>
	<circle class="st1" cx="337" cy="243" r="10"/>
</g>
<g id="_x3C_Group5_x3E_">
	<g>
		<circle class="st0" cx="504" cy="325" r="25"/>
	</g>
	<circle class="st1" cx="504" cy="325" r="10"/>
</g>
<g id="_x3C_Group4_x3E_">
	<g>
		<circle class="st0" cx="290" cy="334" r="25"/>
	</g>
	<circle class="st1" cx="290" cy="334" r="10"/>
</g>
<g id="_x3C_Group3_x3E_">
	<g>
		<circle class="st0" cx="429" cy="176" r="25"/>
	</g>
	<circle class="st1" cx="429" cy="176" r="10"/>
</g>
<g id="_x3C_Group2_x3E_">
	<g>
		<circle class="st0" cx="474" cy="163" r="25"/>
	</g>
	<circle class="st1" cx="474" cy="163" r="10"/>
</g>
<g id="_x3C_Group1_x3E_">
	<g>
		<circle class="st0" cx="348" cy="196" r="25"/>
	</g>
	<circle class="st1" cx="348" cy="196" r="10"/>
</g>
</svg>
