<svg width="359" height="107" viewBox="0 0 359 107" fill="none" xmlns="http://www.w3.org/2000/svg">
<path d="M54.5124 9.667C53.7864 9.34433 53.1814 9.183 52.6974 9.183C51.8101 9.183 50.6001 9.70734 49.0674 10.756C47.5348 11.724 45.8811 12.9743 44.1064 14.507C42.4124 15.959 40.6378 17.6127 38.7824 19.468C36.9271 21.2427 35.2331 22.9367 33.7004 24.55C32.1678 26.1633 30.8368 27.575 29.7074 28.785C28.5781 29.995 27.8521 30.7613 27.5294 31.084C26.6421 32.052 25.5934 33.262 24.3834 34.714C23.1734 36.0853 22.0038 37.4567 20.8744 38.828C19.8258 40.1187 18.8981 41.248 18.0914 42.216C17.3654 43.184 17.0024 43.7083 17.0024 43.789H17.1234C17.2848 43.789 17.6881 43.7487 18.3334 43.668C19.0594 43.5873 19.9064 43.547 20.8744 43.547C22.1651 43.547 23.6978 43.789 25.4724 44.273C27.2471 44.757 28.9411 45.604 30.5544 46.814C32.1678 48.024 33.6198 49.597 34.9104 51.533C36.2011 53.469 37.0078 55.889 37.3304 58.793C38.2178 66.779 38.9841 73.4743 39.6294 78.879C40.2748 84.2837 41.0008 88.5993 41.8074 91.826C42.6141 95.1333 43.5418 97.4727 44.5904 98.844C45.7198 100.296 47.1314 101.022 48.8254 101.022C50.6808 101.022 51.9311 100.82 52.5764 100.417C53.2218 100.014 53.7864 99.812 54.2704 99.812C54.9158 99.812 55.2788 100.336 55.3594 101.385C55.3594 102.514 54.8754 103.442 53.9074 104.168C52.9394 104.894 51.2454 105.257 48.8254 105.257C45.2761 105.257 42.3318 104.733 39.9924 103.684C37.6531 102.635 35.7574 101.022 34.3054 98.844C32.8534 96.666 31.7644 93.9233 31.0384 90.616C30.3124 87.3893 29.7478 83.5173 29.3444 79C28.8604 73.5953 28.3361 68.9973 27.7714 65.206C27.2068 61.4147 26.4808 58.309 25.5934 55.889C24.7868 53.469 23.7784 51.7347 22.5684 50.686C21.3584 49.5567 19.8258 48.992 17.9704 48.992C15.1471 48.992 13.4128 49.597 12.7674 50.807C12.1221 51.9363 11.7994 53.5497 11.7994 55.647C11.7994 60.4063 11.7994 64.238 11.7994 67.142C11.8801 70.046 11.9608 72.3853 12.0414 74.16C12.2028 75.854 12.4044 77.1447 12.6464 78.032C12.9691 78.9193 13.4128 79.726 13.9774 80.452L13.8564 80.573C13.5338 80.7343 12.6868 81.0973 11.3154 81.662C10.0248 82.3073 8.45176 82.63 6.59643 82.63C5.62843 82.63 4.4991 82.4687 3.20843 82.146C1.99843 81.904 1.07076 81.3797 0.42543 80.573V14.386C0.42543 12.934 0.42543 11.5223 0.42543 10.151C0.506096 8.699 0.66743 7.44867 0.90943 6.4C1.2321 5.27067 1.67576 4.38333 2.24043 3.738C2.8051 3.012 3.61176 2.649 4.66043 2.649C5.30576 2.649 6.15276 2.85067 7.20143 3.254C8.2501 3.57667 9.25843 4.02033 10.2264 4.585C11.1944 5.069 12.0011 5.59333 12.6464 6.158C13.3724 6.72267 13.7354 7.20667 13.7354 7.61C13.7354 7.77133 13.6144 7.93267 13.3724 8.094C13.2111 8.17466 13.0094 8.37633 12.7674 8.699C12.5254 9.02167 12.2834 9.46533 12.0414 10.03C11.8801 10.5947 11.7994 11.4417 11.7994 12.571V39.675C14.1388 37.5777 17.6881 33.9477 22.4474 28.785C27.2874 23.5417 32.8938 17.2497 39.2664 9.909C39.9118 9.26367 40.4764 8.49733 40.9604 7.61C41.5251 6.72267 42.0494 5.87567 42.5334 5.069C43.0981 4.26233 43.6628 3.57667 44.2274 3.012C44.8728 2.44734 45.5988 2.165 46.4054 2.165C46.9701 2.165 47.7364 2.32633 48.7044 2.649C49.6724 2.97167 50.6001 3.41533 51.4874 3.98C52.4554 4.54467 53.2621 5.19 53.9074 5.916C54.6334 6.642 54.9964 7.40834 54.9964 8.215C54.9964 8.86033 54.8351 9.34433 54.5124 9.667ZM93.9745 65.811C93.8132 66.9403 93.4098 68.2713 92.7645 69.804C92.1192 71.3367 91.2722 72.829 90.2235 74.281C89.2555 75.6523 88.0858 76.822 86.7145 77.79C85.4238 78.758 83.9718 79.242 82.3585 79.242C79.9385 79.242 77.8008 78.3143 75.9455 76.459C74.1708 74.6037 73.0818 71.982 72.6785 68.594C72.1945 69.8847 71.6298 71.377 70.9845 73.071C70.3392 74.765 69.5325 76.338 68.5645 77.79C67.5965 79.242 66.4672 80.452 65.1765 81.42C63.9665 82.4687 62.5145 82.993 60.8205 82.993C60.3365 82.993 59.9735 82.9527 59.7315 82.872C59.4895 82.7913 59.2072 82.6703 58.8845 82.509C58.6425 82.4283 58.3198 82.3477 57.9165 82.267C57.5938 82.1863 57.1098 82.146 56.4645 82.146C54.5285 82.146 52.8748 81.5007 51.5035 80.21C50.2128 79 49.1642 77.427 48.3575 75.491C47.5508 73.555 46.9458 71.4577 46.5425 69.199C46.2198 66.8597 46.0585 64.6817 46.0585 62.665C46.0585 57.825 46.3005 53.227 46.7845 48.871C47.3492 44.515 48.2365 40.6833 49.4465 37.376C50.6565 33.988 52.2295 31.326 54.1655 29.39C56.1015 27.3733 58.4408 26.365 61.1835 26.365C62.7968 26.365 64.0068 26.5263 64.8135 26.849C65.7008 27.091 66.5075 27.4137 67.2335 27.817C67.9595 28.1397 68.7258 28.5027 69.5325 28.906C70.4198 29.3093 71.6298 29.632 73.1625 29.874C74.8565 30.842 76.0262 32.0117 76.6715 33.383C77.3975 34.6737 77.8412 36.0853 78.0025 37.618C78.2445 39.1507 78.3252 40.764 78.2445 42.458C78.1638 44.0713 78.2445 45.6847 78.4865 47.298C78.4865 47.3787 78.6478 47.4997 78.9705 47.661C79.3738 47.8223 79.8175 48.024 80.3015 48.266C80.7855 48.4273 81.1888 48.7097 81.5115 49.113C81.9148 49.4357 82.1165 49.8793 82.1165 50.444V50.928C81.3098 53.0253 80.8258 54.8807 80.6645 56.494C80.5032 58.1073 80.4225 60.0433 80.4225 62.302C80.4225 63.4313 80.4628 64.6817 80.5435 66.053C80.7048 67.3437 80.9065 68.594 81.1485 69.804C81.4712 70.9333 81.9148 71.9013 82.4795 72.708C83.0442 73.434 83.7702 73.797 84.6575 73.797C85.6255 73.797 86.4725 73.313 87.1985 72.345C88.0052 71.377 88.6505 70.288 89.1345 69.078C89.6992 67.7873 90.1428 66.4967 90.4655 65.206C90.8688 63.9153 91.1108 62.9473 91.1915 62.302C91.3528 61.334 91.7562 60.85 92.4015 60.85C92.8048 60.85 93.1678 61.092 93.4905 61.576C93.8938 61.9793 94.0955 62.7457 94.0955 63.875C94.0955 64.1977 94.0955 64.5203 94.0955 64.843C94.0955 65.085 94.0552 65.4077 93.9745 65.811ZM71.5895 46.209C71.5895 45.3217 71.5088 44.273 71.3475 43.063C71.1862 41.853 70.9038 40.7237 70.5005 39.675C70.0972 38.6263 69.4922 37.739 68.6855 37.013C67.8788 36.287 66.7898 35.924 65.4185 35.924C63.1598 35.924 61.3045 36.9727 59.8525 39.07C58.4812 41.0867 57.3922 43.5067 56.5855 46.33C55.7788 49.0727 55.2545 51.9363 55.0125 54.921C54.7705 57.825 54.6495 60.124 54.6495 61.818C54.6495 63.1087 54.6898 64.6817 54.7705 66.537C54.9318 68.3117 55.1738 70.0057 55.4965 71.619C55.8192 73.2323 56.2628 74.6037 56.8275 75.733C57.4728 76.8623 58.2795 77.427 59.2475 77.427C61.5868 77.427 63.3615 76.5397 64.5715 74.765C65.8622 72.9097 66.8302 70.651 67.4755 67.989C68.1208 65.2463 68.5645 62.3423 68.8065 59.277C69.1292 56.131 69.4115 53.2673 69.6535 50.686C69.8148 49.3147 70.1778 48.4677 70.7425 48.145C71.3072 47.7417 71.5895 47.4593 71.5895 47.298V46.209ZM109.775 31.447C109.614 30.479 109.372 29.6723 109.049 29.027C108.727 28.3817 108.525 27.7363 108.444 27.091C108.444 26.2037 108.767 25.5987 109.412 25.276C110.138 24.9533 111.187 24.792 112.558 24.792C114.898 24.792 116.511 24.9937 117.398 25.397C118.286 25.8003 118.77 26.6877 118.85 28.059C118.689 29.995 118.568 31.4067 118.487 32.294C118.407 33.1813 118.326 33.867 118.245 34.351C118.245 34.7543 118.205 35.1173 118.124 35.44C118.044 35.682 117.963 36.2063 117.882 37.013C119.173 37.1743 121.714 38.0213 125.505 39.554C129.377 41.006 131.959 42.6193 133.249 44.394C134.54 46.1687 135.306 47.54 135.548 48.508C135.871 49.476 136.032 50.5247 136.032 51.654C136.032 52.7833 135.871 53.7917 135.548 54.679C135.226 55.5663 134.54 56.0907 133.491 56.252C133.249 56.252 132.967 56.1713 132.644 56.01C132.402 55.8487 131.918 55.1227 131.192 53.832C130.547 52.5413 129.498 51.4927 128.046 50.686C126.594 49.7987 123.287 48.75 118.124 47.54C118.124 48.5887 118.084 49.839 118.003 51.291C118.003 52.743 117.963 54.195 117.882 55.647C117.802 57.099 117.761 58.4703 117.761 59.761C117.761 61.0517 117.761 62.06 117.761 62.786V74.765C119.778 74.281 121.311 73.676 122.359 72.95C123.408 72.224 124.134 71.4577 124.537 70.651C125.021 69.7637 125.344 68.9167 125.505 68.11C125.667 67.3033 125.788 66.5773 125.868 65.932C126.03 65.2867 126.312 64.7623 126.715 64.359C127.119 63.9557 127.804 63.754 128.772 63.754C130.144 63.754 131.434 64.238 132.644 65.206C133.854 66.174 134.459 67.4243 134.459 68.957C134.459 70.409 133.975 71.8207 133.007 73.192C132.12 74.4827 130.91 75.6523 129.377 76.701C127.845 77.7497 126.03 78.5967 123.932 79.242C121.916 79.8873 119.818 80.2503 117.64 80.331L118.729 102.111C118.729 103.16 118.85 103.845 119.092 104.168C119.415 104.571 119.576 104.934 119.576 105.257C119.576 105.822 119.173 106.185 118.366 106.346C117.56 106.588 116.753 106.709 115.946 106.709H113.042C110.461 106.709 109.009 105.781 108.686 103.926C108.606 103.765 108.565 103.523 108.565 103.2C108.565 102.877 108.565 102.595 108.565 102.353C108.565 101.95 108.606 101.264 108.686 100.296C108.848 99.4087 109.009 98.36 109.17 97.15C109.332 95.94 109.412 93.0763 109.412 88.559C109.493 84.1223 109.533 81.3797 109.533 80.331C106.871 79.9277 104.25 79.1613 101.668 78.032C99.0871 76.9027 96.7881 75.4507 94.7714 73.676C92.7547 71.9013 91.1414 69.8847 89.9314 67.626C88.7214 65.2867 88.1164 62.7457 88.1164 60.003V59.156C88.1164 56.6553 88.5197 54.195 89.3264 51.775C90.2137 49.2743 91.5447 47.0157 93.3194 44.999C95.1747 42.9017 97.4737 41.1673 100.216 39.796C103.04 38.344 106.347 37.376 110.138 36.892L109.775 31.447ZM97.0704 66.658C97.6351 67.7873 98.3611 68.8763 99.2484 69.925C100.216 70.893 101.265 71.74 102.394 72.466C103.604 73.192 104.855 73.797 106.145 74.281C107.517 74.765 108.848 75.0473 110.138 75.128C110.219 73.1113 110.259 71.014 110.259 68.836C110.34 66.5773 110.38 64.238 110.38 61.818C110.461 59.3173 110.501 56.8167 110.501 54.316C110.501 51.8153 110.501 49.3953 110.501 47.056H108.928C106.912 47.2173 105.097 47.7417 103.483 48.629C101.87 49.4357 100.499 50.4843 99.3694 51.775C98.3207 53.0657 97.4737 54.5177 96.8284 56.131C96.2637 57.7443 95.9814 59.3577 95.9814 60.971C95.9814 61.8583 96.0621 62.8263 96.2234 63.875C96.4654 64.9237 96.7477 65.8513 97.0704 66.658ZM174.817 58.309C174.817 60.3257 174.413 62.665 173.607 65.327C172.881 67.9083 171.711 70.3283 170.098 72.587C168.565 74.8457 166.548 76.7413 164.048 78.274C161.628 79.726 158.683 80.452 155.215 80.452C151.907 80.452 149.326 79.9277 147.471 78.879C145.615 77.8303 143.921 76.2977 142.389 74.281C140.937 72.2643 139.888 69.8847 139.243 67.142C138.597 64.3993 138.275 61.5357 138.275 58.551C138.275 55.5663 138.597 52.3397 139.243 48.871C139.888 45.3217 140.937 42.0143 142.389 38.949C143.921 35.8837 145.575 33.262 147.35 31.084C149.124 28.8253 151.585 27.696 154.731 27.696C156.183 27.696 157.554 28.0187 158.845 28.664C160.216 29.2287 161.426 30.0353 162.475 31.084C163.523 32.1327 164.33 33.3427 164.895 34.714C165.459 36.0853 165.782 37.4567 165.863 38.828L165.984 40.643C165.984 42.6597 165.661 44.878 165.016 47.298C164.37 49.718 163.402 51.9363 162.112 53.953C160.902 55.9697 159.369 57.6637 157.514 59.035C155.658 60.4063 153.521 61.092 151.101 61.092C150.697 61.092 150.173 61.092 149.528 61.092C148.882 61.0113 148.318 60.8903 147.834 60.729V64.238C147.834 64.8833 147.995 65.7707 148.318 66.9C148.64 67.9487 149.165 68.9973 149.891 70.046C150.697 71.0947 151.706 72.0223 152.916 72.829C154.206 73.555 155.739 73.918 157.514 73.918C159.853 73.918 161.789 73.434 163.322 72.466C164.935 71.498 166.266 70.288 167.315 68.836C168.363 67.3033 169.13 65.6093 169.614 63.754C170.178 61.8987 170.582 60.0837 170.824 58.309C171.227 57.099 171.509 56.2923 171.671 55.889C171.913 55.4857 172.356 55.284 173.002 55.284C174.212 55.284 174.817 55.9293 174.817 57.22V58.309ZM159.934 38.707C159.934 37.981 159.732 37.255 159.329 36.529C159.006 35.803 158.32 35.44 157.272 35.44C155.82 35.44 154.529 36.2467 153.4 37.86C152.351 39.3927 151.464 41.2077 150.738 43.305C150.012 45.4023 149.447 47.419 149.044 49.355C148.721 51.2103 148.56 52.4203 148.56 52.985V53.469C148.56 54.1143 148.64 54.679 148.802 55.163C148.963 55.647 149.407 55.889 150.133 55.889H150.738C152.432 55.889 153.843 55.284 154.973 54.074C156.183 52.7833 157.151 51.2507 157.877 49.476C158.683 47.7013 159.208 45.8863 159.45 44.031C159.772 42.1757 159.934 40.6833 159.934 39.554V38.707ZM251.61 71.498C251.691 71.498 251.731 71.4577 251.731 71.377V72.103L251.61 71.498ZM242.777 75.37C244.148 75.128 245.641 74.8053 247.254 74.402C248.867 73.918 250.319 72.95 251.61 71.498V71.256C252.417 70.3687 252.86 69.4813 252.941 68.594C253.102 67.626 253.183 66.9 253.183 66.416C253.183 63.5927 252.336 60.608 250.642 57.462C248.948 54.2353 246.81 51.291 244.229 48.629C241.648 45.967 238.784 43.789 235.638 42.095C232.492 40.3203 229.467 39.433 226.563 39.433C226.402 39.433 226.079 39.433 225.595 39.433C225.192 39.433 224.748 39.4733 224.264 39.554C223.78 39.6347 223.336 39.7557 222.933 39.917C222.53 40.0783 222.328 40.3203 222.328 40.643V70.651L222.691 71.861V71.74C222.852 72.0627 222.933 72.345 222.933 72.587C223.014 72.7483 223.175 73.0307 223.417 73.434C223.74 73.8373 224.062 74.2407 224.385 74.644C224.708 75.0473 225.03 75.4103 225.353 75.733C225.756 76.0557 226.119 76.217 226.442 76.217H234.549C234.952 76.217 235.517 76.217 236.243 76.217C236.969 76.1363 237.695 76.0557 238.421 75.975C239.228 75.8943 239.954 75.8137 240.599 75.733C241.325 75.6523 241.849 75.5717 242.172 75.491C242.333 75.491 242.454 75.491 242.535 75.491C242.616 75.4103 242.737 75.37 242.898 75.37H242.777ZM260.201 7.247C260.201 7.32767 260.161 7.40834 260.08 7.489C260.08 7.56967 260.08 7.69066 260.08 7.852V8.215C259.757 8.941 259.475 9.425 259.233 9.667C259.072 9.82833 258.91 9.94933 258.749 10.03L258.023 10.635L256.934 11.603C256.773 11.0383 256.49 10.4737 256.087 9.909C255.764 9.34433 255.321 8.98133 254.756 8.82C254.675 8.65867 254.554 8.578 254.393 8.578C254.232 8.578 254.111 8.578 254.03 8.578C253.949 8.578 253.465 8.61834 252.578 8.699C251.771 8.699 249.513 8.90067 245.802 9.304C242.091 9.62667 238.018 10.151 233.581 10.877C229.225 11.603 225.353 12.3693 221.965 13.176V33.504C223.175 33.1007 224.506 32.8587 225.958 32.778C227.491 32.6973 228.701 32.657 229.588 32.657C233.783 32.657 237.897 33.746 241.93 35.924C245.963 38.0213 249.553 40.643 252.699 43.789C255.926 46.935 258.507 50.3633 260.443 54.074C262.379 57.704 263.347 61.0517 263.347 64.117C263.347 64.5203 263.307 65.085 263.226 65.811C263.145 66.4563 263.024 67.1017 262.863 67.747C262.702 67.9083 262.5 68.1503 262.258 68.473C262.097 68.7957 261.935 69.1587 261.774 69.562L261.29 70.288L261.411 70.167C261.33 70.3283 261.29 70.409 261.29 70.409C261.29 70.4897 261.25 70.53 261.169 70.53L259.596 72.587C257.337 75.4103 254.877 77.548 252.215 79C249.634 80.5327 247.173 81.5813 244.834 82.146C243.221 82.5493 241.849 82.7913 240.72 82.872C239.671 82.9527 238.502 82.993 237.211 82.993C232.936 82.993 228.257 82.8317 223.175 82.509C218.093 82.267 213.334 81.4603 208.897 80.089C204.541 78.7177 200.871 76.5397 197.886 73.555C194.982 70.5703 193.53 66.416 193.53 61.092C193.53 60.608 193.57 59.9223 193.651 59.035C193.812 58.067 194.054 57.1393 194.377 56.252C194.78 55.3647 195.264 54.5983 195.829 53.953C196.474 53.227 197.321 52.864 198.37 52.864C199.741 52.864 200.709 53.5093 201.274 54.8C201.839 56.01 202.121 57.099 202.121 58.067L201.879 58.793C201.718 59.3577 201.476 60.1643 201.153 61.213C200.911 62.181 200.79 63.3507 200.79 64.722C200.79 65.2867 200.83 65.8513 200.911 66.416C201.072 66.9807 201.476 67.6663 202.121 68.473L203.089 69.441C203.976 70.3283 204.743 71.0543 205.388 71.619C206.114 72.1837 206.84 72.6677 207.566 73.071C208.292 73.4743 209.099 73.797 209.986 74.039C210.873 74.281 211.922 74.4423 213.132 74.523C213.293 73.8777 213.374 72.9903 213.374 71.861C213.374 70.651 213.414 69.441 213.495 68.231V67.021C213.495 66.9403 213.495 66.8597 213.495 66.779C213.576 66.6983 213.616 66.6177 213.616 66.537L213.979 52.501L213.495 15.112C205.832 16.6447 200.266 18.1773 196.797 19.71C196.636 18.9033 196.555 18.379 196.555 18.137C196.555 17.8143 196.555 17.5723 196.555 17.411C196.555 17.411 196.595 17.0883 196.676 16.443C196.837 15.717 197.321 14.386 198.128 12.45C199.015 10.514 204.541 8.01334 214.705 4.948C224.95 1.802 237.292 0.228997 251.731 0.228997C251.892 0.228997 252.013 0.269335 252.094 0.350003C252.255 0.350003 252.417 0.350003 252.578 0.350003C252.981 0.350003 253.304 0.390333 253.546 0.471001C253.869 0.471001 254.191 0.511332 254.514 0.592C254.998 0.753336 255.603 0.995333 256.329 1.318C257.136 1.64067 257.821 2.24567 258.386 3.133C258.547 3.45567 258.87 4.101 259.354 5.069C259.919 5.95633 260.201 6.68233 260.201 7.247ZM292.898 72.829C291.204 71.135 289.832 68.5133 288.784 64.964C288.542 65.448 288.219 66.5773 287.816 68.352C287.493 70.046 286.969 71.8207 286.243 73.676C285.517 75.5313 284.549 77.2253 283.339 78.758C282.129 80.2907 280.596 81.057 278.741 81.057C273.497 81.057 269.867 79.4437 267.851 76.217C265.915 72.9903 264.785 68.2713 264.463 62.06V30.721C264.624 30.0757 264.705 29.632 264.705 29.39C264.785 29.148 265.148 29.027 265.794 29.027C266.197 29.027 266.923 29.1077 267.972 29.269C269.02 29.4303 270.069 29.6723 271.118 29.995C272.166 30.3177 273.134 30.7613 274.022 31.326C274.909 31.81 275.353 32.3747 275.353 33.02V56.131C275.353 57.6637 275.353 59.398 275.353 61.334C275.433 63.1893 275.554 64.9237 275.716 66.537C275.958 68.1503 276.321 69.5217 276.805 70.651C277.289 71.6997 278.015 72.224 278.983 72.224C281.322 72.224 283.137 69.683 284.428 64.601C285.799 59.519 286.565 51.533 286.727 40.643C286.727 39.917 286.565 39.2313 286.243 38.586C285.92 37.86 285.759 37.013 285.759 36.045C285.92 35.319 286.565 34.8753 287.695 34.714C288.905 34.5527 290.034 34.472 291.083 34.472C293.503 34.472 295.277 34.7543 296.407 35.319C297.617 35.803 298.222 37.3357 298.222 39.917C298.06 41.5303 297.899 42.7807 297.738 43.668C297.657 44.5553 297.576 45.4023 297.496 46.209C297.496 46.935 297.455 47.7013 297.375 48.508C297.375 49.3147 297.375 50.4843 297.375 52.017C297.375 54.0337 297.455 56.131 297.617 58.309C297.778 60.487 298.06 62.5037 298.464 64.359C298.867 66.1337 299.472 67.9487 300.279 69.804C301.166 71.6593 302.215 72.3853 303.425 71.982C304.715 71.498 305.562 70.9333 305.966 70.288C306.369 69.562 306.772 68.9167 307.176 68.352C307.579 67.7873 308.184 67.505 308.991 67.505C309.636 67.505 310.12 67.747 310.443 68.231C310.765 68.715 310.927 69.1587 310.927 69.562C310.927 71.1753 310.523 72.5467 309.717 73.676C308.991 74.8053 308.063 75.733 306.934 76.459C305.804 77.185 303.828 77.3463 301.005 76.943C298.181 76.5397 295.842 75.5313 293.987 73.918L292.898 72.829ZM358.412 57.704C358.412 59.398 358.049 61.5357 357.323 64.117C356.678 66.6983 355.629 69.199 354.177 71.619C352.806 74.039 351.072 76.096 348.974 77.79C346.877 79.484 344.417 80.331 341.593 80.331C338.528 80.331 336.189 79.4033 334.575 77.548C332.962 75.6927 331.752 73.5147 330.945 71.014C330.219 68.5133 329.776 66.0127 329.614 63.512C329.453 61.0113 329.332 59.0753 329.251 57.704L329.009 53.832C327.396 55.284 325.581 56.8167 323.564 58.43C321.548 60.0433 319.612 61.4953 317.756 62.786C317.676 62.9473 317.635 63.149 317.635 63.391C317.716 63.633 317.716 63.875 317.635 64.117L317.514 76.943C317.676 77.3463 317.756 77.79 317.756 78.274C317.837 78.758 317.877 79.0403 317.877 79.121C317.877 79.5243 317.676 79.8067 317.272 79.968C316.869 80.21 316.425 80.3713 315.941 80.452C315.457 80.5327 314.973 80.573 314.489 80.573C314.005 80.573 313.683 80.573 313.521 80.573C313.118 80.573 312.553 80.5327 311.827 80.452C311.101 80.452 310.335 80.331 309.528 80.089C308.722 79.847 308.036 79.484 307.471 79C306.907 78.516 306.624 77.8303 306.624 76.943C306.624 76.6203 306.786 76.1363 307.108 75.491C307.431 74.765 307.592 73.8373 307.592 72.708V32.294C307.592 31.4873 307.431 30.8823 307.108 30.479C306.866 29.995 306.745 29.4303 306.745 28.785C306.745 28.301 306.987 27.938 307.471 27.696C308.036 27.454 308.681 27.2927 309.407 27.212C310.133 27.0507 310.819 26.97 311.464 26.97C312.19 26.8893 312.674 26.849 312.916 26.849C313.562 26.849 314.409 26.9297 315.457 27.091C316.506 27.2523 317.676 27.6557 318.966 28.301L317.877 38.586L317.756 55.768C319.692 54.8807 321.669 53.6303 323.685 52.017C325.783 50.4037 327.557 48.8307 329.009 47.298L329.372 33.02C329.372 32.6973 329.372 32.2537 329.372 31.689C329.372 31.1243 329.372 30.5597 329.372 29.995C329.453 29.3497 329.534 28.7447 329.614 28.18C329.695 27.6153 329.816 27.212 329.977 26.97C330.058 26.8087 330.179 26.728 330.34 26.728C330.582 26.728 330.784 26.728 330.945 26.728C331.107 26.728 331.671 26.8087 332.639 26.97C333.607 27.1313 334.414 27.2927 335.059 27.454C335.463 27.5347 335.987 27.696 336.632 27.938C337.278 28.18 337.762 28.5833 338.084 29.148C338.165 29.4707 338.286 29.874 338.447 30.358C338.609 30.7613 338.851 31.1647 339.173 31.568C339.657 32.294 340.141 32.8183 340.625 33.141C341.19 33.4637 341.472 33.988 341.472 34.714C341.472 34.714 341.311 35.44 340.988 36.892C340.746 38.344 340.464 40.2397 340.141 42.579C339.819 44.8377 339.496 47.419 339.173 50.323C338.931 53.227 338.81 56.1713 338.81 59.156C338.81 59.882 338.81 61.0113 338.81 62.544C338.891 63.996 339.052 65.5287 339.294 67.142C339.617 68.6747 340.101 70.046 340.746 71.256C341.392 72.3853 342.319 72.95 343.529 72.95C345.546 72.95 347.159 72.1837 348.369 70.651C349.66 69.1183 350.668 67.384 351.394 65.448C352.12 63.512 352.645 61.6163 352.967 59.761C353.29 57.9057 353.572 56.6553 353.814 56.01C353.976 55.6067 354.177 55.2033 354.419 54.8C354.661 54.316 355.105 54.074 355.75 54.074C356.88 54.074 357.606 54.5177 357.928 55.405C358.251 56.2923 358.412 57.0587 358.412 57.704Z" fill="white"/>
</svg>
