<svg width="155" height="37" viewBox="0 0 155 37" fill="none" xmlns="http://www.w3.org/2000/svg">
<g clip-path="url(#clip0)">
<path fill-rule="evenodd" clip-rule="evenodd" d="M84.0313 22.9957C86.8097 23.2037 91 23.7102 91 24.8733C91 25.887 87.8722 26.4396 84.4607 26.7137C84.4804 26.7421 84.491 26.7754 84.4912 26.8095C84.4832 27.0534 84.3761 27.2849 84.1923 27.4558C84.0085 27.6267 83.7622 27.7237 83.5048 27.7267C83.5197 27.7267 81.7959 28 78.6054 28C75.1453 28 73.7068 27.7608 73.5219 27.7267C73.2665 27.7207 73.0233 27.6224 72.842 27.4518C72.6608 27.2813 72.5553 27.0514 72.5472 26.8095C72.5472 26.7766 72.557 26.7445 72.5754 26.7166C69.1513 26.4433 66 25.8907 66 24.8733C66 24.6245 66 23.8684 70.0595 23.295C70.0948 23.2902 70.1308 23.2919 70.1654 23.3002C70.2001 23.3086 70.2326 23.3233 70.2613 23.3435C70.2899 23.3638 70.314 23.3891 70.3323 23.4182C70.3506 23.4473 70.3626 23.4795 70.3678 23.513C70.3729 23.5465 70.371 23.5807 70.3623 23.6135C70.3535 23.6463 70.338 23.6772 70.3166 23.7043C70.2953 23.7314 70.2685 23.7543 70.2378 23.7716C70.2071 23.789 70.1732 23.8004 70.1378 23.8053C67.1949 24.2175 66.5336 24.7218 66.5336 24.8703C66.5336 25.4169 70.6408 26.4299 78.4902 26.4299C86.3396 26.4299 90.446 25.4139 90.446 24.8703C90.446 24.5725 88.8022 23.8513 83.7626 23.4918C83.7511 23.5126 83.7395 23.5339 83.7279 23.5553C83.707 23.5939 83.6861 23.6326 83.6654 23.6679C83.1334 24.5717 82.6178 25.0716 82.1344 25.1533C81.2028 25.3092 79.4061 25.4578 77.604 25.4578C76.2454 25.4578 74.8789 25.3731 73.8682 25.1503C73.116 24.9832 72.4014 24.3207 71.8028 23.2341C70.5593 20.9786 69.9349 17.072 71.0396 14.4377C71.0551 14.4022 71.079 14.3704 71.1094 14.3449C71.2206 14.0582 71.6978 13.7054 73.5383 13.4358C73.5736 13.4307 73.6096 13.4321 73.6443 13.4402C73.679 13.4482 73.7117 13.4626 73.7405 13.4826C73.7693 13.5026 73.7937 13.5278 73.8122 13.5567C73.8308 13.5856 73.8431 13.6177 73.8486 13.6512C73.854 13.6847 73.8525 13.7188 73.844 13.7517C73.8356 13.7846 73.8203 13.8156 73.7992 13.8429C73.7781 13.8702 73.7516 13.8933 73.721 13.9109C73.6905 13.9284 73.6567 13.9401 73.6214 13.9453C72.2212 14.1503 71.737 14.3991 71.639 14.5031C71.69 14.5543 71.8866 14.7014 72.5699 14.8663C72.6338 14.8819 72.6896 14.9191 72.7268 14.9709C72.7639 15.0226 72.7799 15.0855 72.7718 15.1476C72.7636 15.2098 72.7319 15.267 72.6824 15.3085C72.633 15.3501 72.5693 15.3732 72.5033 15.3735C72.4805 15.3736 72.4579 15.3708 72.4359 15.3653C71.9744 15.2554 71.6383 15.1336 71.4173 14.994C70.5805 17.4545 71.1854 20.9912 72.2902 22.9965C72.8057 23.933 73.4122 24.5197 73.9967 24.649C76.2807 25.1585 80.449 24.9186 82.0443 24.649C82.1563 24.6304 82.5692 24.4856 83.1961 23.4198C83.2446 23.3423 83.2901 23.2572 83.3351 23.1728L83.3528 23.1398C83.3611 23.1176 83.3727 23.0966 83.3873 23.0774C83.4848 22.9 83.5719 22.6959 83.6396 22.5369C83.6987 22.3984 83.7432 22.2941 83.7673 22.2716C84.6605 20.1765 85.2834 17.1352 84.615 15.017C83.1781 15.8518 78.2606 15.8637 78.017 15.8637C77.083 15.8637 76.1772 15.8332 75.3232 15.7731C75.2519 15.7672 75.186 15.7349 75.1396 15.6832C75.0933 15.6316 75.0703 15.5646 75.0757 15.497C75.081 15.4294 75.1143 15.3665 75.1683 15.322C75.2222 15.2774 75.2925 15.2548 75.3639 15.2591C76.2039 15.3186 77.0971 15.3483 78.017 15.3483C82.0192 15.3483 84.3118 14.7987 84.4685 14.4912C84.4113 14.3932 83.6419 13.9891 80.9693 13.7893C81.093 13.9763 81.2744 14.1228 81.4888 14.209C81.5296 14.2252 81.5632 14.2542 81.584 14.2912C81.6049 14.3282 81.6116 14.3709 81.603 14.4121C81.5944 14.4532 81.5711 14.4903 81.537 14.517C81.5029 14.5438 81.4601 14.5585 81.4159 14.5588C81.3908 14.5589 81.366 14.5541 81.343 14.5447C81.0931 14.4473 80.8756 14.2875 80.7138 14.0823C80.5519 13.8771 80.4518 13.6342 80.424 13.3794C80.3785 12.9048 80.5995 12.4154 81.0163 12.0685C81.0813 12.0143 81.1511 11.9631 81.2208 11.9126L81.2261 11.9087C81.3769 11.798 81.5194 11.6934 81.5906 11.5635C81.6435 11.4527 81.6677 11.3315 81.6611 11.21C81.6605 10.7501 81.5106 10.3015 81.2318 9.92512C81.2148 9.90577 81.2022 9.88329 81.1948 9.85909C81.1874 9.83491 81.1854 9.80952 81.1889 9.78455C81.1924 9.75959 81.2014 9.73559 81.2152 9.71406C81.229 9.69254 81.2474 9.67397 81.2691 9.65954C81.2909 9.64509 81.3156 9.63509 81.3416 9.63016C81.3677 9.62524 81.3945 9.62548 81.4205 9.6309C81.4465 9.63631 81.4709 9.64678 81.4924 9.66163C81.5139 9.67648 81.5318 9.6954 81.5452 9.71717C81.8681 10.1559 82.041 10.678 82.0404 11.2129C82.047 11.3923 82.0083 11.5706 81.9275 11.7328C81.8163 11.9363 81.6306 12.0715 81.4504 12.2022L81.4351 12.2134C81.3774 12.2557 81.3195 12.2983 81.2655 12.3433C81.1243 12.4562 81.0103 12.5963 80.9311 12.7544C80.8519 12.9125 80.8094 13.0848 80.8063 13.2598H80.8181C84.9896 13.5465 85.0068 14.2662 85.0068 14.5075C85.2106 15.0282 85.3423 15.5716 85.3986 16.1244C85.7124 16.0039 86.0524 15.9577 86.3892 15.9895C86.7261 16.0213 87.0498 16.1303 87.3323 16.3071C88.1386 16.8114 88.5452 17.791 88.452 18.9926C88.3117 20.8145 86.6804 22.2129 84.1833 22.6712C84.1332 22.7833 84.0822 22.8903 84.0313 22.9957ZM86.3568 17.6551C86.1092 17.5206 85.6344 17.5823 85.4213 17.8987C85.4116 17.913 85.3841 18.0959 85.3433 18.3674C85.2548 18.9563 85.1036 19.962 84.9363 20.5664C85.4187 20.5412 85.8762 20.3549 86.2275 20.0406C86.4005 19.8893 86.5395 19.7064 86.6361 19.503C86.7328 19.2996 86.7852 19.0798 86.7901 18.8567C86.8042 18.267 86.6381 17.8036 86.3568 17.6551Z" fill="white"/>
<path d="M84.7811 21.0855H84.7858H84.854C85.505 21.0762 86.1286 20.8355 86.6013 20.4112C86.8256 20.2128 87.006 19.974 87.1318 19.7088C87.2576 19.4435 87.3263 19.1571 87.3339 18.8664C87.3527 18.0628 87.0941 17.4553 86.6287 17.205C86.3858 17.0743 85.9893 16.9896 85.4471 17.257C85.4471 17.0587 85.4471 16.8619 85.4401 16.6673C85.6879 16.5421 85.9666 16.4824 86.2471 16.4943C86.5276 16.5061 86.7996 16.5892 87.0346 16.7349C87.67 17.1337 87.9905 17.9425 87.9121 18.9525C87.7962 20.4498 86.4751 21.6262 84.4262 22.0926C84.55 21.7748 84.6699 21.4383 84.7811 21.0855Z" fill="white"/>
<path d="M84.1128 26.7991C84.1059 26.9548 84.0346 27.1018 83.9144 27.2082C83.7942 27.3146 83.6347 27.372 83.4703 27.368C83.4539 27.368 81.7567 27.6383 78.603 27.6383C75.0098 27.6383 73.5885 27.3717 73.5775 27.3687C73.5647 27.3677 73.5519 27.3677 73.5391 27.3687C73.3792 27.3674 73.2261 27.3073 73.112 27.201C72.998 27.0947 72.932 26.9506 72.9279 26.7991C72.9266 26.7792 72.9219 26.7596 72.9138 26.7411C74.9009 26.8897 76.9482 26.9446 78.4996 26.9446C80.051 26.9446 82.1266 26.8875 84.1269 26.7382C84.1182 26.7575 84.1134 26.7781 84.1128 26.7991Z" fill="white"/>
<path d="M83.2 20.3622C83.0211 20.8636 82.794 21.3484 82.5215 21.8104C82.4008 22.0147 82.7322 22.1988 82.8529 21.9939C83.1413 21.5041 83.3815 20.9902 83.5706 20.4587C83.6497 20.2366 83.2791 20.1408 83.2 20.3622Z" fill="white"/>
<path d="M83.8017 19.6692C84.0715 18.4788 84.0902 17.2496 83.8566 16.0523C83.8127 15.8221 83.4429 15.9201 83.4867 16.1489C83.7072 17.2821 83.6885 18.4455 83.4319 19.5719C83.3802 19.8022 83.75 19.9002 83.8017 19.6692Z" fill="white"/>
<path d="M86.7376 25.1837C86.6091 25.1941 86.4979 25.2038 86.4132 25.2127C86.3655 25.2185 86.3219 25.2411 86.2911 25.2761C86.2603 25.3111 86.2446 25.3559 86.2472 25.4014C86.2498 25.4469 86.2704 25.4898 86.305 25.5215C86.3396 25.5532 86.3855 25.5713 86.4336 25.5721H86.4548C86.537 25.5632 86.6452 25.5543 86.7682 25.5439C87.7397 25.4637 88.6369 25.3664 88.9362 25.0671C88.9898 25.0215 89.0283 24.9622 89.047 24.8963C89.0658 24.8304 89.064 24.7607 89.042 24.6958C88.9636 24.4923 88.6886 24.2576 87.1881 24.0541C87.1632 24.0503 87.1377 24.0512 87.1131 24.0568C87.0885 24.0624 87.0654 24.0727 87.045 24.0869C87.0246 24.1011 87.0074 24.119 86.9944 24.1395C86.9814 24.1601 86.9729 24.1829 86.9693 24.2066C86.9657 24.2303 86.9671 24.2545 86.9735 24.2777C86.9799 24.3009 86.9911 24.3227 87.0064 24.3417C87.0217 24.3608 87.0409 24.3767 87.0629 24.3887C87.0848 24.4006 87.109 24.4083 87.1341 24.4113C88.5272 24.6 88.6714 24.7945 88.6596 24.8198C88.4371 25.0426 87.2461 25.1414 86.7376 25.1837Z" fill="white"/>
<path d="M74.3438 13.7366C74.4174 13.9176 74.5291 14.0826 74.672 14.2215C74.8149 14.3604 74.986 14.4703 75.1751 14.5446C75.1982 14.5539 75.2229 14.5587 75.248 14.5587C75.2922 14.5585 75.335 14.5437 75.3691 14.517C75.4032 14.4903 75.4265 14.4532 75.4351 14.412C75.4436 14.3709 75.4369 14.3282 75.4161 14.2912C75.3953 14.2542 75.3616 14.2251 75.3208 14.2089C75.1157 14.1264 74.9408 13.9885 74.8178 13.8123C75.4446 13.7552 76.1177 13.7136 76.8299 13.6913C76.8656 13.6902 76.9007 13.6825 76.9332 13.6686C76.9657 13.6546 76.995 13.6347 77.0194 13.61C77.0438 13.5853 77.0628 13.5563 77.0753 13.5246C77.0878 13.4929 77.0936 13.4592 77.0924 13.4254C77.0921 13.3914 77.0846 13.3577 77.0702 13.3266C77.0558 13.2954 77.035 13.2673 77.0088 13.2439C76.9827 13.2206 76.9518 13.2026 76.9181 13.1909C76.8844 13.1791 76.8485 13.174 76.8127 13.1759C76.0409 13.1996 75.3114 13.2457 74.6392 13.3103C74.6344 13.1268 74.6734 12.9446 74.7533 12.7775C74.8332 12.6103 74.952 12.4624 75.1007 12.3448C75.1594 12.2958 75.2229 12.2497 75.2856 12.2044C75.4658 12.0737 75.6515 11.9378 75.7635 11.7343C75.8442 11.572 75.8829 11.3937 75.8764 11.2144C75.8762 10.6786 75.7019 10.1558 75.3772 9.71715C75.3639 9.69537 75.3459 9.67646 75.3245 9.66161C75.303 9.64676 75.2785 9.6363 75.2526 9.63088C75.2266 9.62546 75.1998 9.62521 75.1737 9.63014C75.1477 9.63507 75.123 9.64507 75.1012 9.65952C75.0794 9.67396 75.0611 9.69253 75.0473 9.71405C75.0335 9.73557 75.0245 9.75957 75.021 9.78453C75.0175 9.8095 75.0195 9.83488 75.0269 9.85908C75.0342 9.88328 75.0468 9.90576 75.0638 9.9251C75.3424 10.3016 75.4923 10.7501 75.4932 11.21C75.4997 11.3314 75.4755 11.4526 75.4227 11.5635C75.3506 11.6957 75.2057 11.8004 75.0521 11.9125C74.9824 11.963 74.9126 12.0143 74.8476 12.0678C74.4307 12.4146 74.2098 12.904 74.2552 13.3786C74.2607 13.4417 74.3117 13.6995 74.3438 13.7366Z" fill="white"/>
<path d="M78.3194 14.535C78.3479 14.55 78.38 14.5579 78.4126 14.558C78.4549 14.5579 78.496 14.5444 78.5294 14.5199C78.5629 14.4953 78.5868 14.461 78.5975 14.4222C78.6082 14.3834 78.6051 14.3423 78.5887 14.3054C78.5723 14.2685 78.5434 14.2377 78.5067 14.2179C78.2841 14.0878 78.1071 13.8981 77.9982 13.6727H78.0185H78.2826C78.8193 13.6727 79.2424 13.6727 79.765 13.6972H79.7791C79.8512 13.699 79.9211 13.6736 79.9734 13.6265C80.0257 13.5794 80.0562 13.5146 80.058 13.4462C80.0599 13.3779 80.0331 13.3116 79.9834 13.262C79.9337 13.2125 79.8653 13.1836 79.7932 13.1818C79.2565 13.1558 78.8263 13.1581 78.2826 13.1573C78.2826 13.1573 77.8509 13.144 77.825 13.1529C77.8156 13.0979 77.8078 13.0429 77.8038 12.9865C77.7701 12.4646 77.9424 11.9494 78.2873 11.5412C78.346 11.4744 78.4095 11.412 78.473 11.3489C78.6501 11.1736 78.8326 10.9931 78.9376 10.7309C79.0132 10.5192 79.0484 10.2964 79.0418 10.0729C79.0462 9.38789 78.88 8.71155 78.5568 8.09884C78.5453 8.07758 78.5295 8.05868 78.5102 8.04322C78.491 8.02775 78.4687 8.01603 78.4447 8.00872C78.4207 8.00141 78.3954 7.99865 78.3703 8.00061C78.3452 8.00257 78.3207 8.00919 78.2982 8.02012C78.2758 8.03104 78.2559 8.04605 78.2396 8.06427C78.2232 8.0825 78.2109 8.1036 78.2032 8.12636C78.1955 8.14912 78.1926 8.17309 78.1946 8.19692C78.1967 8.22074 78.2037 8.24394 78.2152 8.26521C78.5106 8.82615 78.6623 9.44523 78.6579 10.0722C78.6643 10.2517 78.6378 10.4308 78.5795 10.6017C78.5012 10.7948 78.3531 10.9419 78.1964 11.0978C78.1274 11.1662 78.0577 11.2345 77.9935 11.3073C77.5833 11.7867 77.379 12.3951 77.4215 13.011C77.4669 13.6727 77.8203 14.2706 78.3194 14.535Z" fill="white"/>
<path d="M71.5466 14.4704C71.5466 14.4704 69.0557 20.0012 73.6002 24.8116L82.1407 25.157C82.1407 25.157 86.4704 19.771 84.5406 14.5083C84.5437 14.5075 78.422 16.5499 71.5466 14.4704Z" fill="white"/>
</g>
<path d="M18.774 3.276C18.522 3.164 18.312 3.108 18.144 3.108C17.836 3.108 17.416 3.29 16.884 3.654C16.352 3.99 15.778 4.424 15.162 4.956C14.574 5.46 13.958 6.034 13.314 6.678C12.67 7.294 12.082 7.882 11.55 8.442C11.018 9.002 10.556 9.492 10.164 9.912C9.772 10.332 9.52 10.598 9.408 10.71C9.1 11.046 8.736 11.466 8.316 11.97C7.896 12.446 7.49 12.922 7.098 13.398C6.734 13.846 6.412 14.238 6.132 14.574C5.88 14.91 5.754 15.092 5.754 15.12H5.796C5.852 15.12 5.992 15.106 6.216 15.078C6.468 15.05 6.762 15.036 7.098 15.036C7.546 15.036 8.078 15.12 8.694 15.288C9.31 15.456 9.898 15.75 10.458 16.17C11.018 16.59 11.522 17.136 11.97 17.808C12.418 18.48 12.698 19.32 12.81 20.328C13.118 23.1 13.384 25.424 13.608 27.3C13.832 29.176 14.084 30.674 14.364 31.794C14.644 32.942 14.966 33.754 15.33 34.23C15.722 34.734 16.212 34.986 16.8 34.986C17.444 34.986 17.878 34.916 18.102 34.776C18.326 34.636 18.522 34.566 18.69 34.566C18.914 34.566 19.04 34.748 19.068 35.112C19.068 35.504 18.9 35.826 18.564 36.078C18.228 36.33 17.64 36.456 16.8 36.456C15.568 36.456 14.546 36.274 13.734 35.91C12.922 35.546 12.264 34.986 11.76 34.23C11.256 33.474 10.878 32.522 10.626 31.374C10.374 30.254 10.178 28.91 10.038 27.342C9.87 25.466 9.688 23.87 9.492 22.554C9.296 21.238 9.044 20.16 8.736 19.32C8.456 18.48 8.106 17.878 7.686 17.514C7.266 17.122 6.734 16.926 6.09 16.926C5.11 16.926 4.508 17.136 4.284 17.556C4.06 17.948 3.948 18.508 3.948 19.236C3.948 20.888 3.948 22.218 3.948 23.226C3.976 24.234 4.004 25.046 4.032 25.662C4.088 26.25 4.158 26.698 4.242 27.006C4.354 27.314 4.508 27.594 4.704 27.846L4.662 27.888C4.55 27.944 4.256 28.07 3.78 28.266C3.332 28.49 2.786 28.602 2.142 28.602C1.806 28.602 1.414 28.546 0.966 28.434C0.546 28.35 0.224 28.168 0 27.888V4.914C0 4.41 0 3.92 0 3.444C0.028 2.94 0.084 2.506 0.168 2.142C0.28 1.75 0.434 1.442 0.63 1.218C0.826 0.966001 1.106 0.840001 1.47 0.840001C1.694 0.840001 1.988 0.910001 2.352 1.05C2.716 1.162 3.066 1.316 3.402 1.512C3.738 1.68 4.018 1.862 4.242 2.058C4.494 2.254 4.62 2.422 4.62 2.562C4.62 2.618 4.578 2.674 4.494 2.73C4.438 2.758 4.368 2.828 4.284 2.94C4.2 3.052 4.116 3.206 4.032 3.402C3.976 3.598 3.948 3.892 3.948 4.284V13.692C4.76 12.964 5.992 11.704 7.644 9.912C9.324 8.092 11.27 5.908 13.482 3.36C13.706 3.136 13.902 2.87 14.07 2.562C14.266 2.254 14.448 1.96 14.616 1.68C14.812 1.4 15.008 1.162 15.204 0.966001C15.428 0.770001 15.68 0.672001 15.96 0.672001C16.156 0.672001 16.422 0.728001 16.758 0.840001C17.094 0.952001 17.416 1.106 17.724 1.302C18.06 1.498 18.34 1.722 18.564 1.974C18.816 2.226 18.942 2.492 18.942 2.772C18.942 2.996 18.886 3.164 18.774 3.276ZM32.4716 22.764C32.4156 23.156 32.2756 23.618 32.0516 24.15C31.8276 24.682 31.5336 25.2 31.1696 25.704C30.8336 26.18 30.4276 26.586 29.9516 26.922C29.5036 27.258 28.9996 27.426 28.4396 27.426C27.5996 27.426 26.8576 27.104 26.2136 26.46C25.5976 25.816 25.2196 24.906 25.0796 23.73C24.9116 24.178 24.7156 24.696 24.4916 25.284C24.2676 25.872 23.9876 26.418 23.6516 26.922C23.3156 27.426 22.9236 27.846 22.4756 28.182C22.0556 28.546 21.5516 28.728 20.9636 28.728C20.7956 28.728 20.6696 28.714 20.5856 28.686C20.5016 28.658 20.4036 28.616 20.2916 28.56C20.2076 28.532 20.0956 28.504 19.9556 28.476C19.8436 28.448 19.6756 28.434 19.4516 28.434C18.7796 28.434 18.2056 28.21 17.7296 27.762C17.2816 27.342 16.9176 26.796 16.6376 26.124C16.3576 25.452 16.1476 24.724 16.0076 23.94C15.8956 23.128 15.8396 22.372 15.8396 21.672C15.8396 19.992 15.9236 18.396 16.0916 16.884C16.2876 15.372 16.5956 14.042 17.0156 12.894C17.4356 11.718 17.9816 10.794 18.6536 10.122C19.3256 9.422 20.1376 9.072 21.0896 9.072C21.6496 9.072 22.0696 9.128 22.3496 9.24C22.6576 9.324 22.9376 9.436 23.1896 9.576C23.4416 9.688 23.7076 9.814 23.9876 9.954C24.2956 10.094 24.7156 10.206 25.2476 10.29C25.8356 10.626 26.2416 11.032 26.4656 11.508C26.7176 11.956 26.8716 12.446 26.9276 12.978C27.0116 13.51 27.0396 14.07 27.0116 14.658C26.9836 15.218 27.0116 15.778 27.0956 16.338C27.0956 16.366 27.1516 16.408 27.2636 16.464C27.4036 16.52 27.5576 16.59 27.7256 16.674C27.8936 16.73 28.0336 16.828 28.1456 16.968C28.2856 17.08 28.3556 17.234 28.3556 17.43V17.598C28.0756 18.326 27.9076 18.97 27.8516 19.53C27.7956 20.09 27.7676 20.762 27.7676 21.546C27.7676 21.938 27.7816 22.372 27.8096 22.848C27.8656 23.296 27.9356 23.73 28.0196 24.15C28.1316 24.542 28.2856 24.878 28.4816 25.158C28.6776 25.41 28.9296 25.536 29.2376 25.536C29.5736 25.536 29.8676 25.368 30.1196 25.032C30.3996 24.696 30.6236 24.318 30.7916 23.898C30.9876 23.45 31.1416 23.002 31.2536 22.554C31.3936 22.106 31.4776 21.77 31.5056 21.546C31.5616 21.21 31.7016 21.042 31.9256 21.042C32.0656 21.042 32.1916 21.126 32.3036 21.294C32.4436 21.434 32.5136 21.7 32.5136 22.092C32.5136 22.204 32.5136 22.316 32.5136 22.428C32.5136 22.512 32.4996 22.624 32.4716 22.764ZM24.7016 15.96C24.7016 15.652 24.6736 15.288 24.6176 14.868C24.5616 14.448 24.4636 14.056 24.3236 13.692C24.1836 13.328 23.9736 13.02 23.6936 12.768C23.4136 12.516 23.0356 12.39 22.5596 12.39C21.7756 12.39 21.1316 12.754 20.6276 13.482C20.1516 14.182 19.7736 15.022 19.4936 16.002C19.2136 16.954 19.0316 17.948 18.9476 18.984C18.8636 19.992 18.8216 20.79 18.8216 21.378C18.8216 21.826 18.8356 22.372 18.8636 23.016C18.9196 23.632 19.0036 24.22 19.1156 24.78C19.2276 25.34 19.3816 25.816 19.5776 26.208C19.8016 26.6 20.0816 26.796 20.4176 26.796C21.2296 26.796 21.8456 26.488 22.2656 25.872C22.7136 25.228 23.0496 24.444 23.2736 23.52C23.4976 22.568 23.6516 21.56 23.7356 20.496C23.8476 19.404 23.9456 18.41 24.0296 17.514C24.0856 17.038 24.2116 16.744 24.4076 16.632C24.6036 16.492 24.7016 16.394 24.7016 16.338V15.96ZM37.9562 10.836C37.9002 10.5 37.8162 10.22 37.7042 9.996C37.5922 9.772 37.5222 9.548 37.4942 9.324C37.4942 9.016 37.6062 8.806 37.8302 8.694C38.0822 8.582 38.4462 8.526 38.9222 8.526C39.7342 8.526 40.2942 8.596 40.6022 8.736C40.9102 8.876 41.0782 9.184 41.1062 9.66C41.0502 10.332 41.0082 10.822 40.9802 11.13C40.9522 11.438 40.9242 11.676 40.8962 11.844C40.8962 11.984 40.8822 12.11 40.8542 12.222C40.8262 12.306 40.7982 12.488 40.7702 12.768C41.2182 12.824 42.1002 13.118 43.4162 13.65C44.7602 14.154 45.6562 14.714 46.1042 15.33C46.5522 15.946 46.8182 16.422 46.9022 16.758C47.0142 17.094 47.0702 17.458 47.0702 17.85C47.0702 18.242 47.0142 18.592 46.9022 18.9C46.7902 19.208 46.5522 19.39 46.1882 19.446C46.1042 19.446 46.0062 19.418 45.8942 19.362C45.8102 19.306 45.6422 19.054 45.3902 18.606C45.1662 18.158 44.8022 17.794 44.2982 17.514C43.7942 17.206 42.6462 16.842 40.8542 16.422C40.8542 16.786 40.8402 17.22 40.8122 17.724C40.8122 18.228 40.7982 18.732 40.7702 19.236C40.7422 19.74 40.7282 20.216 40.7282 20.664C40.7282 21.112 40.7282 21.462 40.7282 21.714V25.872C41.4282 25.704 41.9602 25.494 42.3242 25.242C42.6882 24.99 42.9402 24.724 43.0802 24.444C43.2482 24.136 43.3602 23.842 43.4162 23.562C43.4722 23.282 43.5142 23.03 43.5422 22.806C43.5982 22.582 43.6962 22.4 43.8362 22.26C43.9762 22.12 44.2142 22.05 44.5502 22.05C45.0262 22.05 45.4742 22.218 45.8942 22.554C46.3142 22.89 46.5242 23.324 46.5242 23.856C46.5242 24.36 46.3562 24.85 46.0202 25.326C45.7122 25.774 45.2922 26.18 44.7602 26.544C44.2282 26.908 43.5982 27.202 42.8702 27.426C42.1702 27.65 41.4422 27.776 40.6862 27.804L41.0642 35.364C41.0642 35.728 41.1062 35.966 41.1902 36.078C41.3022 36.218 41.3582 36.344 41.3582 36.456C41.3582 36.652 41.2182 36.778 40.9382 36.834C40.6582 36.918 40.3782 36.96 40.0982 36.96H39.0902C38.1942 36.96 37.6902 36.638 37.5782 35.994C37.5502 35.938 37.5362 35.854 37.5362 35.742C37.5362 35.63 37.5362 35.532 37.5362 35.448C37.5362 35.308 37.5502 35.07 37.5782 34.734C37.6342 34.426 37.6902 34.062 37.7462 33.642C37.8022 33.222 37.8302 32.228 37.8302 30.66C37.8582 29.12 37.8722 28.168 37.8722 27.804C36.9482 27.664 36.0382 27.398 35.1422 27.006C34.2462 26.614 33.4482 26.11 32.7482 25.494C32.0482 24.878 31.4882 24.178 31.0682 23.394C30.6482 22.582 30.4382 21.7 30.4382 20.748V20.454C30.4382 19.586 30.5782 18.732 30.8582 17.892C31.1662 17.024 31.6282 16.24 32.2442 15.54C32.8882 14.812 33.6862 14.21 34.6382 13.734C35.6182 13.23 36.7662 12.894 38.0822 12.726L37.9562 10.836ZM33.5462 23.058C33.7422 23.45 33.9942 23.828 34.3022 24.192C34.6382 24.528 35.0022 24.822 35.3942 25.074C35.8142 25.326 36.2482 25.536 36.6962 25.704C37.1722 25.872 37.6342 25.97 38.0822 25.998C38.1102 25.298 38.1242 24.57 38.1242 23.814C38.1522 23.03 38.1662 22.218 38.1662 21.378C38.1942 20.51 38.2082 19.642 38.2082 18.774C38.2082 17.906 38.2082 17.066 38.2082 16.254H37.6622C36.9622 16.31 36.3322 16.492 35.7722 16.8C35.2122 17.08 34.7362 17.444 34.3442 17.892C33.9802 18.34 33.6862 18.844 33.4622 19.404C33.2662 19.964 33.1682 20.524 33.1682 21.084C33.1682 21.392 33.1962 21.728 33.2522 22.092C33.3362 22.456 33.4342 22.778 33.5462 23.058ZM60.5325 20.16C60.5325 20.86 60.3925 21.672 60.1125 22.596C59.8605 23.492 59.4545 24.332 58.8945 25.116C58.3625 25.9 57.6625 26.558 56.7945 27.09C55.9545 27.594 54.9325 27.846 53.7285 27.846C52.5805 27.846 51.6845 27.664 51.0405 27.3C50.3965 26.936 49.8085 26.404 49.2765 25.704C48.7725 25.004 48.4085 24.178 48.1845 23.226C47.9605 22.274 47.8485 21.28 47.8485 20.244C47.8485 19.208 47.9605 18.088 48.1845 16.884C48.4085 15.652 48.7725 14.504 49.2765 13.44C49.8085 12.376 50.3825 11.466 50.9985 10.71C51.6145 9.926 52.4685 9.534 53.5605 9.534C54.0645 9.534 54.5405 9.646 54.9885 9.87C55.4645 10.066 55.8845 10.346 56.2485 10.71C56.6125 11.074 56.8925 11.494 57.0885 11.97C57.2845 12.446 57.3965 12.922 57.4245 13.398L57.4665 14.028C57.4665 14.728 57.3545 15.498 57.1305 16.338C56.9065 17.178 56.5705 17.948 56.1225 18.648C55.7025 19.348 55.1705 19.936 54.5265 20.412C53.8825 20.888 53.1405 21.126 52.3005 21.126C52.1605 21.126 51.9785 21.126 51.7545 21.126C51.5305 21.098 51.3345 21.056 51.1665 21V22.218C51.1665 22.442 51.2225 22.75 51.3345 23.142C51.4465 23.506 51.6285 23.87 51.8805 24.234C52.1605 24.598 52.5105 24.92 52.9305 25.2C53.3785 25.452 53.9105 25.578 54.5265 25.578C55.3385 25.578 56.0105 25.41 56.5425 25.074C57.1025 24.738 57.5645 24.318 57.9285 23.814C58.2925 23.282 58.5585 22.694 58.7265 22.05C58.9225 21.406 59.0625 20.776 59.1465 20.16C59.2865 19.74 59.3845 19.46 59.4405 19.32C59.5245 19.18 59.6785 19.11 59.9025 19.11C60.3225 19.11 60.5325 19.334 60.5325 19.782V20.16ZM55.3665 13.356C55.3665 13.104 55.2965 12.852 55.1565 12.6C55.0445 12.348 54.8065 12.222 54.4425 12.222C53.9385 12.222 53.4905 12.502 53.0985 13.062C52.7345 13.594 52.4265 14.224 52.1745 14.952C51.9225 15.68 51.7265 16.38 51.5865 17.052C51.4745 17.696 51.4185 18.116 51.4185 18.312V18.48C51.4185 18.704 51.4465 18.9 51.5025 19.068C51.5585 19.236 51.7125 19.32 51.9645 19.32H52.1745C52.7625 19.32 53.2525 19.11 53.6445 18.69C54.0645 18.242 54.4005 17.71 54.6525 17.094C54.9325 16.478 55.1145 15.848 55.1985 15.204C55.3105 14.56 55.3665 14.042 55.3665 13.65V13.356ZM117.54 24.738C117.568 24.738 117.582 24.724 117.582 24.696V24.948L117.54 24.738ZM114.474 26.082C114.95 25.998 115.468 25.886 116.028 25.746C116.588 25.578 117.092 25.242 117.54 24.738V24.654C117.82 24.346 117.974 24.038 118.002 23.73C118.058 23.394 118.086 23.142 118.086 22.974C118.086 21.994 117.792 20.958 117.204 19.866C116.616 18.746 115.874 17.724 114.978 16.8C114.082 15.876 113.088 15.12 111.996 14.532C110.904 13.916 109.854 13.608 108.846 13.608C108.79 13.608 108.678 13.608 108.51 13.608C108.37 13.608 108.216 13.622 108.048 13.65C107.88 13.678 107.726 13.72 107.586 13.776C107.446 13.832 107.376 13.916 107.376 14.028V24.444L107.502 24.864V24.822C107.558 24.934 107.586 25.032 107.586 25.116C107.614 25.172 107.67 25.27 107.754 25.41C107.866 25.55 107.978 25.69 108.09 25.83C108.202 25.97 108.314 26.096 108.426 26.208C108.566 26.32 108.692 26.376 108.804 26.376H111.618C111.758 26.376 111.954 26.376 112.206 26.376C112.458 26.348 112.71 26.32 112.962 26.292C113.242 26.264 113.494 26.236 113.718 26.208C113.97 26.18 114.152 26.152 114.264 26.124C114.32 26.124 114.362 26.124 114.39 26.124C114.418 26.096 114.46 26.082 114.516 26.082H114.474ZM120.522 2.436C120.522 2.464 120.508 2.492 120.48 2.52C120.48 2.548 120.48 2.59 120.48 2.646V2.772C120.368 3.024 120.27 3.192 120.186 3.276C120.13 3.332 120.074 3.374 120.018 3.402L119.766 3.612L119.388 3.948C119.332 3.752 119.234 3.556 119.094 3.36C118.982 3.164 118.828 3.038 118.632 2.982C118.604 2.926 118.562 2.898 118.506 2.898C118.45 2.898 118.408 2.898 118.38 2.898C118.352 2.898 118.184 2.912 117.876 2.94C117.596 2.94 116.812 3.01 115.524 3.15C114.236 3.262 112.822 3.444 111.282 3.696C109.77 3.948 108.426 4.214 107.25 4.494V11.55C107.67 11.41 108.132 11.326 108.636 11.298C109.168 11.27 109.588 11.256 109.896 11.256C111.352 11.256 112.78 11.634 114.18 12.39C115.58 13.118 116.826 14.028 117.918 15.12C119.038 16.212 119.934 17.402 120.606 18.69C121.278 19.95 121.614 21.112 121.614 22.176C121.614 22.316 121.6 22.512 121.572 22.764C121.544 22.988 121.502 23.212 121.446 23.436C121.39 23.492 121.32 23.576 121.236 23.688C121.18 23.8 121.124 23.926 121.068 24.066L120.9 24.318L120.942 24.276C120.914 24.332 120.9 24.36 120.9 24.36C120.9 24.388 120.886 24.402 120.858 24.402L120.312 25.116C119.528 26.096 118.674 26.838 117.75 27.342C116.854 27.874 116 28.238 115.188 28.434C114.628 28.574 114.152 28.658 113.76 28.686C113.396 28.714 112.99 28.728 112.542 28.728C111.058 28.728 109.434 28.672 107.67 28.56C105.906 28.476 104.254 28.196 102.714 27.72C101.202 27.244 99.928 26.488 98.8916 25.452C97.8836 24.416 97.3796 22.974 97.3796 21.126C97.3796 20.958 97.3936 20.72 97.4216 20.412C97.4776 20.076 97.5616 19.754 97.6736 19.446C97.8136 19.138 97.9816 18.872 98.1776 18.648C98.4016 18.396 98.6956 18.27 99.0596 18.27C99.536 18.27 99.872 18.494 100.068 18.942C100.264 19.362 100.362 19.74 100.362 20.076L100.278 20.328C100.222 20.524 100.138 20.804 100.026 21.168C99.942 21.504 99.9 21.91 99.9 22.386C99.9 22.582 99.914 22.778 99.942 22.974C99.998 23.17 100.138 23.408 100.362 23.688L100.698 24.024C101.006 24.332 101.272 24.584 101.496 24.78C101.748 24.976 102 25.144 102.252 25.284C102.504 25.424 102.784 25.536 103.092 25.62C103.4 25.704 103.764 25.76 104.184 25.788C104.24 25.564 104.268 25.256 104.268 24.864C104.268 24.444 104.282 24.024 104.31 23.604V23.184C104.31 23.156 104.31 23.128 104.31 23.1C104.338 23.072 104.352 23.044 104.352 23.016L104.478 18.144L104.31 5.166C101.65 5.698 99.718 6.23 98.5136 6.762C98.4576 6.482 98.4296 6.3 98.4296 6.216C98.4296 6.104 98.4296 6.02 98.4296 5.964C98.4296 5.964 98.4436 5.852 98.4716 5.628C98.5276 5.376 98.6956 4.914 98.9756 4.242C99.2836 3.57 101.202 2.702 104.73 1.638C108.286 0.546001 112.57 0 117.582 0C117.638 0 117.68 0.014002 117.708 0.042002C117.764 0.042002 117.82 0.042002 117.876 0.042002C118.016 0.042002 118.128 0.056001 118.212 0.084001C118.324 0.084001 118.436 0.098 118.548 0.126001C118.716 0.182002 118.926 0.266001 119.178 0.378001C119.458 0.490001 119.696 0.700001 119.892 1.008C119.948 1.12 120.06 1.344 120.228 1.68C120.424 1.988 120.522 2.24 120.522 2.436ZM131.871 25.2C131.283 24.612 130.807 23.702 130.443 22.47C130.359 22.638 130.247 23.03 130.107 23.646C129.995 24.234 129.813 24.85 129.561 25.494C129.309 26.138 128.973 26.726 128.553 27.258C128.133 27.79 127.601 28.056 126.957 28.056C125.137 28.056 123.877 27.496 123.177 26.376C122.505 25.256 122.113 23.618 122.001 21.462V10.584C122.057 10.36 122.085 10.206 122.085 10.122C122.113 10.038 122.239 9.996 122.463 9.996C122.603 9.996 122.855 10.024 123.219 10.08C123.583 10.136 123.947 10.22 124.311 10.332C124.675 10.444 125.011 10.598 125.319 10.794C125.627 10.962 125.781 11.158 125.781 11.382V19.404C125.781 19.936 125.781 20.538 125.781 21.21C125.809 21.854 125.851 22.456 125.907 23.016C125.991 23.576 126.117 24.052 126.285 24.444C126.453 24.808 126.705 24.99 127.041 24.99C127.853 24.99 128.483 24.108 128.931 22.344C129.407 20.58 129.673 17.808 129.729 14.028C129.729 13.776 129.673 13.538 129.561 13.314C129.449 13.062 129.393 12.768 129.393 12.432C129.449 12.18 129.673 12.026 130.065 11.97C130.485 11.914 130.877 11.886 131.241 11.886C132.081 11.886 132.697 11.984 133.089 12.18C133.509 12.348 133.719 12.88 133.719 13.776C133.663 14.336 133.607 14.77 133.551 15.078C133.523 15.386 133.495 15.68 133.467 15.96C133.467 16.212 133.453 16.478 133.425 16.758C133.425 17.038 133.425 17.444 133.425 17.976C133.425 18.676 133.453 19.404 133.509 20.16C133.565 20.916 133.663 21.616 133.803 22.26C133.943 22.876 134.153 23.506 134.433 24.15C134.741 24.794 135.105 25.046 135.525 24.906C135.973 24.738 136.267 24.542 136.407 24.318C136.547 24.066 136.687 23.842 136.827 23.646C136.967 23.45 137.177 23.352 137.457 23.352C137.681 23.352 137.849 23.436 137.961 23.604C138.073 23.772 138.129 23.926 138.129 24.066C138.129 24.626 137.989 25.102 137.709 25.494C137.457 25.886 137.135 26.208 136.743 26.46C136.351 26.712 135.665 26.768 134.685 26.628C133.705 26.488 132.893 26.138 132.249 25.578L131.871 25.2ZM154.612 19.95C154.612 20.538 154.486 21.28 154.234 22.176C154.01 23.072 153.646 23.94 153.142 24.78C152.666 25.62 152.064 26.334 151.336 26.922C150.608 27.51 149.754 27.804 148.774 27.804C147.71 27.804 146.898 27.482 146.338 26.838C145.778 26.194 145.358 25.438 145.078 24.57C144.826 23.702 144.672 22.834 144.616 21.966C144.56 21.098 144.518 20.426 144.49 19.95L144.406 18.606C143.846 19.11 143.216 19.642 142.516 20.202C141.816 20.762 141.144 21.266 140.5 21.714C140.472 21.77 140.458 21.84 140.458 21.924C140.486 22.008 140.486 22.092 140.458 22.176L140.416 26.628C140.472 26.768 140.5 26.922 140.5 27.09C140.528 27.258 140.542 27.356 140.542 27.384C140.542 27.524 140.472 27.622 140.332 27.678C140.192 27.762 140.038 27.818 139.87 27.846C139.702 27.874 139.534 27.888 139.366 27.888C139.198 27.888 139.086 27.888 139.03 27.888C138.89 27.888 138.694 27.874 138.442 27.846C138.19 27.846 137.924 27.804 137.644 27.72C137.364 27.636 137.126 27.51 136.93 27.342C136.734 27.174 136.636 26.936 136.636 26.628C136.636 26.516 136.692 26.348 136.804 26.124C136.916 25.872 136.972 25.55 136.972 25.158V11.13C136.972 10.85 136.916 10.64 136.804 10.5C136.72 10.332 136.678 10.136 136.678 9.912C136.678 9.744 136.762 9.618 136.93 9.534C137.126 9.45 137.35 9.394 137.602 9.366C137.854 9.31 138.092 9.282 138.316 9.282C138.568 9.254 138.736 9.24 138.82 9.24C139.044 9.24 139.338 9.268 139.702 9.324C140.066 9.38 140.472 9.52 140.92 9.744L140.542 13.314L140.5 19.278C141.172 18.97 141.858 18.536 142.558 17.976C143.286 17.416 143.902 16.87 144.406 16.338L144.532 11.382C144.532 11.27 144.532 11.116 144.532 10.92C144.532 10.724 144.532 10.528 144.532 10.332C144.56 10.108 144.588 9.898 144.616 9.702C144.644 9.506 144.686 9.366 144.742 9.282C144.77 9.226 144.812 9.198 144.868 9.198C144.952 9.198 145.022 9.198 145.078 9.198C145.134 9.198 145.33 9.226 145.666 9.282C146.002 9.338 146.282 9.394 146.506 9.45C146.646 9.478 146.828 9.534 147.052 9.618C147.276 9.702 147.444 9.842 147.556 10.038C147.584 10.15 147.626 10.29 147.682 10.458C147.738 10.598 147.822 10.738 147.934 10.878C148.102 11.13 148.27 11.312 148.438 11.424C148.634 11.536 148.732 11.718 148.732 11.97C148.732 11.97 148.676 12.222 148.564 12.726C148.48 13.23 148.382 13.888 148.27 14.7C148.158 15.484 148.046 16.38 147.934 17.388C147.85 18.396 147.808 19.418 147.808 20.454C147.808 20.706 147.808 21.098 147.808 21.63C147.836 22.134 147.892 22.666 147.976 23.226C148.088 23.758 148.256 24.234 148.48 24.654C148.704 25.046 149.026 25.242 149.446 25.242C150.146 25.242 150.706 24.976 151.126 24.444C151.574 23.912 151.924 23.31 152.176 22.638C152.428 21.966 152.61 21.308 152.722 20.664C152.834 20.02 152.932 19.586 153.016 19.362C153.072 19.222 153.142 19.082 153.226 18.942C153.31 18.774 153.464 18.69 153.688 18.69C154.08 18.69 154.332 18.844 154.444 19.152C154.556 19.46 154.612 19.726 154.612 19.95Z" fill="white"/>
<defs>
<clipPath id="clip0">
<rect width="25" height="20" fill="white" transform="translate(66 8)"/>
</clipPath>
</defs>
</svg>
