<svg width="44" height="71" viewBox="0 0 44 71" fill="none" xmlns="http://www.w3.org/2000/svg">
<path fill-rule="evenodd" clip-rule="evenodd" d="M41 22V49C41 59.4934 32.4934 68 22 68C11.5066 68 3 59.4934 3 49V22C3 11.5066 11.5066 3 22 3C32.4934 3 41 11.5066 41 22ZM0 22C0 9.84973 9.84973 0 22 0C34.1503 0 44 9.84973 44 22V49C44 61.1503 34.1503 71 22 71C9.84973 71 0 61.1503 0 49V22ZM22 19C20.8954 19 20 19.8954 20 21V23C20 24.1046 20.8954 25 22 25C23.1046 25 24 24.1046 24 23V21C24 19.8954 23.1046 19 22 19Z" fill="white"/>
</svg>
